<mxfile host="app.diagrams.net" agent="Mozilla/5.0 (Windows NT 10.0; Win64; x64) AppleWebKit/537.36 (KHTML, like Gecko) Chrome/130.0.0.0 Safari/537.36" version="24.8.4">
  <diagram name="Page-1" id="So7_IFpTOi4B6ig8pwbU">
    <mxGraphModel dx="521" dy="607" grid="1" gridSize="10" guides="1" tooltips="1" connect="1" arrows="1" fold="1" page="1" pageScale="1" pageWidth="850" pageHeight="1100" math="0" shadow="0">
      <root>
        <mxCell id="0" />
        <mxCell id="1" parent="0" />
        <mxCell id="2GqsL-FckJPFqatPRpop-15" style="edgeStyle=none;curved=1;rounded=0;orthogonalLoop=1;jettySize=auto;html=1;fontSize=12;startSize=8;endSize=8;" parent="1" source="2GqsL-FckJPFqatPRpop-1" edge="1">
          <mxGeometry relative="1" as="geometry">
            <mxPoint x="650" y="160" as="targetPoint" />
          </mxGeometry>
        </mxCell>
        <mxCell id="2GqsL-FckJPFqatPRpop-1" value="ssm&lt;div&gt;parameter&lt;/div&gt;" style="shape=cylinder3;whiteSpace=wrap;html=1;boundedLbl=1;backgroundOutline=1;size=15;" parent="1" vertex="1">
          <mxGeometry x="280" y="120" width="60" height="80" as="geometry" />
        </mxCell>
        <mxCell id="2GqsL-FckJPFqatPRpop-6" style="edgeStyle=elbowEdgeStyle;rounded=0;orthogonalLoop=1;jettySize=auto;html=1;fontSize=12;startSize=8;endSize=8;elbow=vertical;entryX=0;entryY=0;entryDx=0;entryDy=27.5;entryPerimeter=0;" parent="1" source="2GqsL-FckJPFqatPRpop-2" target="2GqsL-FckJPFqatPRpop-1" edge="1">
          <mxGeometry relative="1" as="geometry">
            <mxPoint x="110" y="180" as="targetPoint" />
          </mxGeometry>
        </mxCell>
        <mxCell id="2GqsL-FckJPFqatPRpop-2" value="" style="rounded=1;whiteSpace=wrap;html=1;" parent="1" vertex="1">
          <mxGeometry x="50" y="250" width="120" height="60" as="geometry" />
        </mxCell>
        <mxCell id="2GqsL-FckJPFqatPRpop-14" style="rounded=0;orthogonalLoop=1;jettySize=auto;html=1;fontSize=12;startSize=8;endSize=8;" parent="1" source="2GqsL-FckJPFqatPRpop-3" edge="1">
          <mxGeometry relative="1" as="geometry">
            <mxPoint x="650" y="160" as="targetPoint" />
          </mxGeometry>
        </mxCell>
        <mxCell id="2GqsL-FckJPFqatPRpop-3" value="frontend" style="rounded=1;whiteSpace=wrap;html=1;" parent="1" vertex="1">
          <mxGeometry x="590" y="250" width="120" height="60" as="geometry" />
        </mxCell>
        <mxCell id="2GqsL-FckJPFqatPRpop-11" value="" style="edgeStyle=none;curved=1;rounded=0;orthogonalLoop=1;jettySize=auto;html=1;fontSize=12;startSize=8;endSize=8;" parent="1" edge="1">
          <mxGeometry relative="1" as="geometry">
            <mxPoint x="297.92" y="250" as="sourcePoint" />
            <mxPoint x="302.08666666666664" y="200" as="targetPoint" />
          </mxGeometry>
        </mxCell>
        <mxCell id="2GqsL-FckJPFqatPRpop-4" value="mysql" style="rounded=1;whiteSpace=wrap;html=1;" parent="1" vertex="1">
          <mxGeometry x="240" y="250" width="120" height="60" as="geometry" />
        </mxCell>
        <mxCell id="2GqsL-FckJPFqatPRpop-8" style="edgeStyle=elbowEdgeStyle;rounded=0;orthogonalLoop=1;jettySize=auto;html=1;fontSize=12;startSize=8;endSize=8;elbow=vertical;entryX=1;entryY=0.5;entryDx=0;entryDy=0;entryPerimeter=0;" parent="1" source="2GqsL-FckJPFqatPRpop-5" target="2GqsL-FckJPFqatPRpop-1" edge="1">
          <mxGeometry relative="1" as="geometry">
            <mxPoint x="470" y="150" as="targetPoint" />
          </mxGeometry>
        </mxCell>
        <mxCell id="2GqsL-FckJPFqatPRpop-5" value="backend" style="rounded=1;whiteSpace=wrap;html=1;" parent="1" vertex="1">
          <mxGeometry x="410" y="250" width="120" height="60" as="geometry" />
        </mxCell>
      </root>
    </mxGraphModel>
  </diagram>
</mxfile>
